# xmcd
#
# Track frame offsets: 
#        150
#        17745
#        33730
#        52447
#        73930
#        81040
#        95725
#        112620
#        127257
#        140830
#        155987
#        186685
#        332970
#
# Disc length: 4440 seconds
#
# Revision: 2
# Processed by: cddbd v1.5.2PL0 Copyright (c) Steve Scherf et al.
# Submitted via: ExactAudioCopy v0.95b4
#
DISCID=d611560d
DTITLE=Ben Harper And The Blind Boys of Alabama - There Will Be A Ligh
DTITLE=t
DYEAR=2004
DGENRE=
TTITLE0=Take My Hand
TTITLE1=Wicked Man
TTITLE2=Where Could I Go
TTITLE3=Church House Steps
TTITLE4=11th Commandment
TTITLE5=Well Well Well
TTITLE6=Pictures of Jesus
TTITLE7=Satisfied Mind
TTITLE8=Mother Pray
TTITLE9=There Will Be A Light
TTITLE10=Church On Time
TTITLE11=Data Track
TTITLE12=Bonus Track
EXTD=
EXTT0=
EXTT1=
EXTT2=
EXTT3=
EXTT4=
EXTT5=
EXTT6=
EXTT7=
EXTT8=
EXTT9=
EXTT10=
EXTT11=
EXTT12=
PLAYORDER=
